<svg t="1710240863260" class="icon" viewBox="0 0 1024 1024" version="1.1" xmlns="http://www.w3.org/2000/svg" p-id="919" width="16" height="16"><path d="M268.821 69.14l0.694 0.449 162.5 107.1a20 20 0 0 0 10.537 3.295l0.469 0.006h137.958a20 20 0 0 0 10.612-3.047l0.394-0.254 162.5-107.1A50 50 0 0 1 782 61.337c27.338 0 49.552 21.94 49.993 49.173l0.007 0.827 0.001 346.53c72.557 5.225 129.797 65.744 129.797 139.633v221c0 77.32-62.68 140-140 140h-618c-77.32 0-140-62.68-140-140v-221c0-73.346 56.403-133.52 128.202-139.51V111.337a50 50 0 0 1 8.252-27.515c15.044-22.827 45.588-29.3 68.57-14.683zM821.798 547.5h-618c-27.338 0-49.552 21.94-50 49.173V818.5c0 27.338 21.94 49.552 49.173 49.993l0.827 0.007h618c27.338 0 49.552-21.94 50-49.173V597.5c0-27.338-21.94-49.552-49.173-49.993l-0.827-0.007zM742 185.606l-100.487 66.23a110 110 0 0 1-59.637 18.15l-0.897 0.004H443.021a110 110 0 0 1-59.784-17.664l-0.75-0.49L282 185.606V455.5h460V185.606zM427.077 334.638c22.092 0 40 17.908 40 40 0 22.091-17.908 40-40 40-22.091 0-40-17.909-40-40 0-22.092 17.909-40 40-40z m195.652 0c22.091 0 40 17.908 40 40 0 22.091-17.909 40-40 40s-40-17.909-40-40c0-22.092 17.909-40 40-40z" fill="#2E2B26" p-id="920"></path><path d="M448.798 708h128c24.853 0 45 20.147 45 45s-20.147 45-45 45h-128c-24.853 0-45-20.147-45-45s20.147-45 45-45z"  p-id="921"></path></svg>