<svg t="1710241593804" class="icon" viewBox="0 0 1024 1024" version="1.1" xmlns="http://www.w3.org/2000/svg" p-id="973" width="16" height="16"><path d="M515 592.19c-57.37 0-111.31-22.34-151.88-62.91-40.57-40.57-62.91-94.51-62.91-151.88s22.34-111.31 62.91-151.88c40.57-40.57 94.51-62.91 151.88-62.91s111.31 22.34 151.88 62.91c40.57 40.57 62.91 94.51 62.91 151.88s-22.34 111.31-62.91 151.88-94.51 62.91-151.88 62.91z m0-359.59c-79.84 0-144.8 64.96-144.8 144.8S435.16 522.2 515 522.2s144.8-64.96 144.8-144.8S594.84 232.6 515 232.6z" fill="#DDDDDD" p-id="974"></path><path d="M772.87 812.91H257.13c-40.14 0-71.84-34.08-68.95-74.11l21.64-299.37c2.61-36.15 32.7-64.14 68.95-64.14h472.45c36.25 0 66.34 27.99 68.95 64.14l21.64 299.37c2.89 40.04-28.81 74.11-68.95 74.11z" p-id="975"></path><path d="M334.68 473.35m-41.13 0a41.13 41.13 0 1 0 82.26 0 41.13 41.13 0 1 0-82.26 0Z" fill="#FFFFFF" p-id="976"></path><path d="M694.27 473.35m-41.13 0a41.13 41.13 0 1 0 82.26 0 41.13 41.13 0 1 0-82.26 0Z" p-id="977"></path></svg>