<svg t="1713620609559" class="icon" viewBox="0 0 1024 1024" version="1.1" xmlns="http://www.w3.org/2000/svg" p-id="14956" width="200" height="200"><path d="M273.794041 563.831745l-162.432413 247.748531 185.345548 0.779932 67.693873 169.481311 168.178614-265.522547m-0.004216-0.012648l176.778944 265.518331 67.698089-169.477095 185.345547-0.784147-170.05045-249.489677" fill="#FFADAD" p-id="14957"></path><path d="M364.405265 998.704911a16.863393 16.863393 0 0 1-15.666092-10.61129L285.265364 829.17301l-173.975405-0.729341a16.863393 16.863393 0 0 1-14.034558-26.108748l162.432412-247.748531a16.867608 16.867608 0 0 1 28.20824 18.494926L142.495667 794.847575l154.283178 0.645025a16.863393 16.863393 0 0 1 15.590206 10.611289l55.446835 138.827879 150.185374-237.111946a16.863393 16.863393 0 0 1 28.790027-0.586003l158.806783 238.532687 55.788318-139.666832a16.854961 16.854961 0 0 1 15.590207-10.61129l153.604426-0.645025-152.175254-223.262885a16.871824 16.871824 0 0 1 4.439288-23.4359 16.87604 16.87604 0 0 1 23.4359 4.439288l170.05045 249.489677a16.863393 16.863393 0 0 1-13.865924 26.361698l-173.975405 0.729342-63.478025 158.916395a16.863393 16.863393 0 0 1-29.696435 3.090217l-162.386038-243.903678-154.287394 243.591705a16.846529 16.846529 0 0 1-14.236919 7.845693z" fill="#6E6E96" p-id="14958"></path><path d="M227.208919 594.17742s59.569934 154.460244 257.765387 173.20812l30.670295-40.619697 40.619696 40.619697s167.263775-12.238607 259.44751-162.655852l-28.97974-42.516829L249.721548 571.669007l-22.512629 22.508413z" fill="#6E6E96" opacity=".15" p-id="14959"></path><path d="M531.382362 706.453887c-184.26629 0-333.629574-149.367499-333.629574-333.633789 0-184.262074 149.371715-333.638005 333.629574-333.638005 184.287369 0 333.654869 149.375931 333.654868 333.638005-0.012648 184.26629-149.375931 333.633789-333.654868 333.633789z" fill="#FFE587" p-id="14960"></path><path d="M526.142063 657.676524c-147.849794 0-267.706356-119.860778-267.706357-267.714788s119.856562-267.710572 267.706357-267.710572c147.866657 0 267.72322 119.856562 267.723219 267.710572 0 147.866657-119.852347 267.714788-267.723219 267.714788z" fill="#FFFFFF" opacity=".64" p-id="14961"></path><path d="M528.309008 636.011281c-147.849794 0-267.706356-119.860778-267.706356-267.719004 0-147.849794 119.856562-267.706356 267.706356-267.706356 147.875089 0 267.740083 119.856562 267.740084 267.706356-0.004216 147.858226-119.873426 267.719004-267.740084 267.719004z" fill="#EDCD8C" p-id="14962"></path><path d="M526.87562 48.469606c-184.262074 0-333.629574 149.375931-333.629573 333.633789 0 184.274722 149.367499 333.633789 333.629573 333.63379 184.283153 0 333.646437-149.359068 333.646437-333.63379 0-184.262074-149.363283-333.633789-333.646437-333.633789z m-2.247047 626.76171c-170.585863 0-308.874113-138.296682-308.874113-308.886761s138.292466-308.878329 308.874113-308.878329c170.606942 0 308.895193 138.284035 308.895193 308.878329 0 170.606942-138.296682 308.886761-308.895193 308.886761z" fill="#C29379" opacity=".39" p-id="14963"></path><path d="M211.348898 400.180952c0-177.255335 143.692968-326.85049 320.944087-326.85049 130.897869 0 243.401992 84.300099 293.347145 196.652452-38.600305-133.9122-161.981317-231.880079-308.342917-231.880079-177.242687 0-320.931439 143.688752-320.931439 320.944087a319.708843 319.708843 0 0 0 27.596942 130.18539 320.969382 320.969382 0 0 1-12.613818-89.05136z" fill="#FFFFFF" opacity=".71" p-id="14964"></path><path d="M684.523045 492.002124c2.736085-9.83979 11.391222-21.926626 19.215836-26.854952l0.033727-0.016864c7.816182-4.932542 7.816182-13.001676 0-17.925786l-0.033727-0.033727c-7.816182-4.928326-16.905551-16.03287-20.189697-24.679575-3.288362-8.646705-8.676215-8.646705-11.947713 0-3.284146 8.646705-12.381946 19.755464-20.181265 24.679575l-0.050591 0.033727c-7.816182 4.924111-7.816182 12.989028 0 17.925786l0.050591 0.016864c7.807751 4.932542 16.450239 17.015163 19.215835 26.854952l1.951938 6.95615c2.748733 9.831358 7.251259 9.831358 10.008424 0l1.926642-6.95615z" fill="#FFFFFF" p-id="14965"></path><path d="M528.309008 95.602788c-147.845578 0-267.706356 119.856562-267.706356 267.714788 0 21.669459 2.592747 42.727621 7.457836 62.896238a268.831988 268.831988 0 0 1-1.222596-25.459507c0-147.858226 119.860778-267.710572 267.706356-267.710572 126.260436 0 232.027634 87.402963 260.2696 204.987184-12.736077-135.994829-127.166843-242.428131-266.50484-242.428131z" fill="#D4AC88" opacity=".61" p-id="14966"></path><path d="M522.267698 723.31728c-193.258694 0-350.48875-157.230056-350.48875-350.497182S329.004788 22.3187 522.267698 22.3187c193.275558 0 350.518261 157.234272 350.518261 350.501398-0.008432 193.267126-157.251135 350.497182-350.518261 350.497182z m0-667.271795c-174.662588 0-316.761965 142.103593-316.761965 316.774613 0 174.666804 142.099377 316.770397 316.761965 316.770397 174.675236 0 316.78726-142.103593 316.791476-316.770397-0.004216-174.67102-142.11624-316.774613-316.791476-316.774613z" fill="#6E6E96" p-id="14967"></path><path d="M562.200212 536.061953h-54.806026V326.07899l-11.559856 11.564071-38.752076-38.756292 105.117958-105.122173z" fill="#6E6E96" p-id="14968"></path><path d="M962.014385 490.758449l31.618861 31.618861-29.806046 29.806046-31.618861-31.618861z" fill="#80BBFF" p-id="14969"></path><path d="M55.282417 532.950657l29.814478 29.806047-52.698102 52.710749-29.814478-29.810262z" fill="#FF8080" p-id="14970"></path><path d="M874.383766 883.279205l54.747004 67.516808-32.748709 26.555627-54.747004-67.516807z" fill="#FFE380" p-id="14971"></path><path d="M169.101884 887.111411l29.814478 29.806046-48.482253 48.490686-29.810262-29.810262z" fill="#BFFFD4" p-id="14972"></path></svg>